<svg xmlns="http://www.w3.org/2000/svg" viewBox="0 0 30 20"><rect width="30" height="20" rx="1.5" fill="#003399"/><polygon points="15.00,1.43 15.43,2.75 16.81,2.75 15.69,3.56 16.12,4.87 15.00,4.06 13.88,4.87 14.31,3.56 13.19,2.75 14.57,2.75" fill="#FFCC00"/><polygon points="18.33,2.33 18.76,3.64 20.14,3.64 19.02,4.45 19.45,5.76 18.33,4.95 17.22,5.76 17.64,4.45 16.53,3.64 17.91,3.64" fill="#FFCC00"/><polygon points="20.77,4.77 21.20,6.08 22.58,6.08 21.46,6.89 21.89,8.20 20.77,7.39 19.66,8.20 20.08,6.89 18.97,6.08 20.35,6.08" fill="#FFCC00"/><polygon points="21.67,8.10 22.09,9.41 23.47,9.41 22.36,10.22 22.78,11.54 21.67,10.73 20.55,11.54 20.98,10.22 19.86,9.41 21.24,9.41" fill="#FFCC00"/><polygon points="20.77,11.43 21.20,12.75 22.58,12.75 21.46,13.56 21.89,14.87 20.77,14.06 19.66,14.87 20.08,13.56 18.97,12.75 20.35,12.75" fill="#FFCC00"/><polygon points="18.33,13.87 18.76,15.19 20.14,15.19 19.02,16.00 19.45,17.31 18.33,16.50 17.22,17.31 17.64,16.00 16.53,15.19 17.91,15.19" fill="#FFCC00"/><polygon points="15.00,14.77 15.43,16.08 16.81,16.08 15.69,16.89 16.12,18.20 15.00,17.39 13.88,18.20 14.31,16.89 13.19,16.08 14.57,16.08" fill="#FFCC00"/><polygon points="11.67,13.87 12.09,15.19 13.47,15.19 12.36,16.00 12.78,17.31 11.67,16.50 10.55,17.31 10.98,16.00 9.86,15.19 11.24,15.19" fill="#FFCC00"/><polygon points="9.23,11.43 9.65,12.75 11.03,12.75 9.92,13.56 10.34,14.87 9.23,14.06 8.11,14.87 8.54,13.56 7.42,12.75 8.80,12.75" fill="#FFCC00"/><polygon points="8.33,8.10 8.76,9.41 10.14,9.41 9.02,10.22 9.45,11.54 8.33,10.73 7.22,11.54 7.64,10.22 6.53,9.41 7.91,9.41" fill="#FFCC00"/><polygon points="9.23,4.77 9.65,6.08 11.03,6.08 9.92,6.89 10.34,8.20 9.23,7.39 8.11,8.20 8.54,6.89 7.42,6.08 8.80,6.08" fill="#FFCC00"/><polygon points="11.67,2.33 12.09,3.64 13.47,3.64 12.36,4.45 12.78,5.76 11.67,4.95 10.55,5.76 10.98,4.45 9.86,3.64 11.24,3.64" fill="#FFCC00"/></svg>