<?xml version="1.0" encoding="utf-8"?>
<svg version="1.1" id="Layer_1" xmlns="http://www.w3.org/2000/svg" xmlns:xlink="http://www.w3.org/1999/xlink" x="0px" y="0px"
	 viewBox="0 0 248.2 37.5" style="enable-background:new 0 0 248.2 37.5;" xml:space="preserve">
<style type="text/css">
	.st0{fill:#6D2333;}
</style>
<path class="st0" d="M246.9,2.9h-26.4v31.4h27v-7.2h-18.7v-5.6h13.5v-6.5h-13.5V10h18.1V2.9z M205.1,2.9v16.9L190.4,2.9H185v31.4
	h8.3V17.7L208,34.3h5.5V2.9H205.1z M157.6,16v-6h9.7c1.8,0,2.9,1.1,2.9,2.9c0,1.9-1,3-2.8,3H157.6z M172.9,21.7
	c3.8-1.7,5.7-4.7,5.7-8.9c0-6.1-4.1-9.9-10.8-9.9h-18.4v31.4h8.2V22.4h6.6l7.1,11.9h9.1L172.9,21.7z M82.3,27.4v-6.3h11.1
	c1.1,0,3.4,0.1,3.4,3.2s-2.4,3.1-3.4,3.1H82.3z M82.3,15.3V10h9.8c1.9,0,2.8,0.9,2.8,2.6c0,2.4-1.8,2.6-2.8,2.6H82.3z M74.1,34.3
	h19.6c7.2,0,11.7-3.8,11.7-9.8c0-3.4-1.3-6.1-4-7.6v-0.2c1.4-1.4,2-3.1,2-5.3c0-5.4-4.2-8.4-11.7-8.4H74.1V34.3z M63.8,13.1l3.6-5.7
	c-4.2-3.2-10-5.1-15.5-5.1c-8.1,0-13.5,3.9-13.5,10c0,4.9,4.2,8,12.5,9.1c4.5,0.5,9.4,0.7,9.4,3.6c0,2-2.1,3.1-6.2,3.1
	c-4.6,0-9.1-1.6-12.9-4.7l-4.1,5.9c4.8,3.9,10.2,5.8,16.6,5.8c9.1,0,14.7-3.8,14.7-10.1c0-7.8-8.6-9.1-13.9-9.8
	c-4.8-0.6-7.9-0.9-7.9-3.2c0-1.7,1.8-2.6,5.2-2.6C56,9.3,60,10.6,63.8,13.1 M17.2,9.5c4.9,0,8.4,3.8,8.4,9.1s-3.5,9.2-8.4,9.2
	S8.9,24,8.9,18.6S12.3,9.5,17.2,9.5 M17.2,2.3c-9.5,0-16.6,7-16.6,16.3C0.5,28,7.7,35,17.2,35s16.7-7,16.7-16.4
	C33.9,9.3,26.7,2.3,17.2,2.3 M126.8,1.9c-9.4,0-17,7.6-17,17c0,8.1,5.6,14.8,13.2,16.6c-0.1-0.5-0.2-0.9-0.2-1.2
	c-0.1-1.6,0.2-2.3,0.2-3.2c0-0.5-0.1-0.8-0.1-1.1c0-0.3-1.1-4.6-1-7.9c0.1-1.8,0-1.9,0.1-2c0,0,0,0,0-0.1l-0.1,0
	c-1.4,0.2-2.6,0-3.6-1.2l0.6-0.3l-0.7-0.2c0,0,0.8-0.4,1.1-1.1h-0.1c-1.2-0.4-2.8-1.5-2.8-3.6c0-2.1,1.7-2.9,2.9-3.3
	c0.2-0.1,0.2,0,0.1,0.1c-0.1,0.1-2.3,1.1-1.1,3.2c0.7,1.2,1.8,1.2,2.3,1.2c0.5,0.1,1-0.7,3.6-0.6c2.2,0,2.7,0.3,2.7,0.3
	c1.3-0.2,2.4-0.5,4.9,0.2c0.4,0.1,2.3,0.5,2.7-1.1c0.4-1.6-0.8-3.1-1.6-3.4c-0.3-0.1-0.1-0.2,0.1-0.2c1.9,0.4,3.5,2.1,3.3,4
	c-0.3,1.8-1.3,2.9-4,3.4c0.9,0.2,2.2,1,2.4,1.3c0.2,0.3-1.5,1.2-1.8,1.3c2.6,1.3,5.2,4.5,5.3,4.6c0.1,0.1,1.7,0.4,4.6,0.4
	c0.7-1.9,1.1-3.9,1.1-6C143.8,9.5,136.2,1.9,126.8,1.9z"/>
</svg>
