<svg width="108" height="32" viewBox="0 0 108 32" fill="none" xmlns="http://www.w3.org/2000/svg">
<path d="M0 0.847059C0 0.345098 0.316841 0 0.823788 0H1.52084C2.02779 0 2.34463 0.345098 2.34463 0.847059V5.30196C2.34463 5.77255 2.62978 5.96078 2.97831 5.89804C3.92883 5.7098 5.25957 5.4902 6.68536 5.4902C11.6281 5.4902 13.5291 6.87059 13.5291 12.5804V21.051C13.5291 21.5529 13.1806 21.8667 12.6737 21.8667H11.9766C11.4697 21.8667 11.1528 21.5529 11.1528 21.051V12.7373C11.1528 8.50196 10.1072 7.62353 6.68536 7.62353C5.06946 7.62353 4.21399 7.78039 3.3902 7.93725C2.50305 8.09412 2.28126 8.56471 2.28126 9.38039V21.1137C2.28126 21.6157 1.96442 21.9294 1.45747 21.9294H0.823788C0.316841 21.9294 0 21.6157 0 21.1137V0.847059Z" fill="white"/>
<path d="M25.9493 19.6078C26.8364 19.3568 27.0899 18.8862 27.0899 17.945V6.49403C27.0899 5.99207 27.4067 5.64697 27.9454 5.64697H28.6107C29.1177 5.64697 29.4662 5.99207 29.4662 6.49403V18.2274C29.4662 20.0156 28.8325 20.9881 27.28 21.5215C26.076 21.898 24.5552 22.0548 22.7808 22.0548C18.0282 22.0548 15.9688 20.4862 15.9688 14.7764V6.49403C15.9688 5.99207 16.2856 5.64697 16.7925 5.64697H17.4262C17.9332 5.64697 18.2817 5.99207 18.2817 6.49403V14.745C18.2817 19.0117 19.5174 19.9215 22.7175 19.9215C24.3334 19.9529 25.1572 19.8901 25.9493 19.6078Z" fill="white"/>
<path d="M32.001 18.1961V0.847059C32.001 0.345098 32.3178 0 32.8248 0H33.5218C34.0288 0 34.3456 0.345098 34.3456 0.847059V5.36471C34.3456 5.83529 34.6308 5.96078 35.011 5.86667C36.2467 5.61569 37.3556 5.4902 38.8764 5.4902H39.6685C44.6746 5.4902 46.7024 7.15294 46.7024 13.4902V14.0235C46.7024 20.3608 44.6746 22.0235 39.6685 22.0235H38.9081C33.5852 22.0235 32.001 20.9569 32.001 18.1961ZM38.9081 19.9529H39.5735C43.5023 19.9529 44.3578 18.8549 44.3578 13.8667V13.5843C44.3578 8.72157 43.534 7.62353 39.5735 7.62353H38.9081C37.1021 7.62353 36.4051 7.74902 35.2961 8C34.6308 8.15686 34.3456 8.43922 34.3456 9.16078V17.7882C34.3456 19.1059 34.6624 19.4196 35.8348 19.7647C36.6269 19.9216 37.6408 19.9529 38.9081 19.9529Z" fill="white"/>
<path d="M55.2255 22.0235C51.5184 22.0235 49.8709 20.4549 49.8709 14.7451V8.3137C49.8709 7.90585 49.7124 7.74899 49.3005 7.74899H48.4134C47.9064 7.74899 47.5896 7.43527 47.5896 6.9333V6.49409C47.5896 5.99213 47.9064 5.64703 48.4134 5.64703H49.3005C49.7124 5.64703 49.8709 5.49017 49.8709 5.1137V2.79213C49.8709 2.29017 50.1877 1.94507 50.6946 1.94507H51.3917C51.8986 1.94507 52.2155 2.29017 52.2155 2.79213V5.14507C52.2155 5.55291 52.3739 5.6784 52.7858 5.6784H57.5701C58.0771 5.6784 58.3939 6.0235 58.3939 6.52546V6.96468C58.3939 7.46664 58.0771 7.78036 57.5701 7.78036H52.7858C52.3739 7.78036 52.2155 7.93723 52.2155 8.34507V14.9019C52.2155 19.0431 53.166 19.9529 55.2889 19.9529H55.4156C57.1899 19.9529 57.6969 19.4823 58.2355 19.4823C58.6791 19.4823 58.9325 19.7333 58.9325 20.2353V20.7059C58.9325 21.2706 58.6791 21.5843 57.8236 21.8039C57.3483 21.9294 56.5245 22.0549 55.4156 22.0549H55.2255V22.0235Z" fill="white"/>
<path d="M66.4418 26.0078V21.3646C66.4418 20.9254 66.22 20.7058 65.8081 20.6117C64.2239 20.2666 63.2733 19.3568 62.7981 17.5372L60.0416 7.09011C59.7881 6.11756 60.0733 5.64697 60.7069 5.64697H61.4357C62.1327 5.64697 62.3545 5.9607 62.5763 6.96462L64.9209 16.6274C65.3645 18.2587 65.9031 18.698 67.2656 18.698H67.9626C69.3567 18.698 69.8636 18.2587 70.3072 16.6274L72.6519 6.96462C72.8736 5.9607 73.1271 5.64697 73.8242 5.64697H74.5529C75.1866 5.64697 75.4717 6.11756 75.2183 7.09011L72.4617 17.5372C71.9548 19.3568 71.036 20.2666 69.4518 20.6117C69.0399 20.7058 68.8181 20.9254 68.8181 21.3646V26.0078C68.8181 26.5411 68.4379 26.8862 67.9309 26.8862H67.3289C66.7903 26.8862 66.4418 26.5411 66.4418 26.0078Z" fill="white"/>
<path d="M77.8165 26.8863C77.3412 26.8863 76.9927 26.5412 76.9927 26.0393V9.66278C76.9927 6.40004 78.8937 5.49023 83.678 5.49023H84.6602C89.6347 5.49023 91.6941 7.12161 91.6941 13.3647V14.1177C91.6941 20.4236 89.6347 22.0236 84.6602 22.0236H83.7731C82.2839 22.0236 81.1116 21.8981 80.0344 21.804C79.5591 21.7412 79.3373 21.9608 79.3373 22.4V26.0393C79.3373 26.5412 78.9888 26.8863 78.4818 26.8863H77.8165ZM80.1611 19.7647C81.2067 19.8902 82.2206 19.953 83.8048 19.953H84.4701C88.4623 19.953 89.3495 18.9177 89.3495 14.0863V13.4589C89.3495 8.69024 88.494 7.62357 84.4701 7.62357H83.8048C82.6958 7.62357 81.5235 7.71769 80.6047 7.93729C79.5274 8.18827 79.3373 8.8471 79.3373 9.97651V18.6353C79.369 19.3255 79.5591 19.6393 80.1611 19.7647Z" fill="white"/>
<path d="M93.5 14.1177V13.4902C93.5 7.34121 95.3694 5.49023 100.471 5.49023H100.851C105.793 5.49023 107.79 7.02749 107.79 11.8589V12.7373C107.79 14.2745 107.029 14.8079 105.635 14.8079H96.4466C96.0664 14.8079 95.8763 14.9647 95.8763 15.3726C95.8763 18.6353 96.8268 19.953 100.629 19.953H100.946C104.019 19.953 105.698 19.0745 106.395 19.0745C106.902 19.0745 107.156 19.2942 107.156 19.8589V20.2667C107.156 20.9569 106.776 21.1451 106.11 21.3334C105.065 21.6157 103.354 22.0236 101.009 22.0236H100.597C95.3377 22.0236 93.5 20.1726 93.5 14.1177ZM96.4149 12.9569H104.906C105.287 12.9569 105.477 12.8 105.477 12.4236C105.477 8.37651 104.653 7.56082 100.819 7.56082H100.344C96.8585 7.56082 95.8446 8.62749 95.8446 12.4236C95.8763 12.8628 96.003 12.9569 96.4149 12.9569Z" fill="white"/>
<path d="M67.6138 29.051C68.7544 29.051 69.1346 29.4589 69.1346 30.5255C69.1346 31.5922 68.7227 32 67.6138 32C66.4415 32 66.0613 31.5922 66.0613 30.5255C66.0613 29.4589 66.4732 29.051 67.6138 29.051Z" fill="white"/>
<path d="M60.2315 0.564697C61.3721 0.564697 61.7523 0.97254 61.7523 2.03921C61.7523 3.10587 61.3404 3.51372 60.2315 3.51372C59.0592 3.51372 58.679 3.10587 58.679 2.03921C58.679 0.97254 59.0909 0.564697 60.2315 0.564697Z" fill="white"/>
<path d="M74.9964 0.564697C76.137 0.564697 76.5172 0.97254 76.5172 2.03921C76.5172 3.10587 76.1053 3.51372 74.9964 3.51372C73.8241 3.51372 73.4438 3.10587 73.4438 2.03921C73.4438 0.97254 73.8557 0.564697 74.9964 0.564697Z" fill="white"/>
</svg>
